<?xml version="1.0" encoding="utf-8" ?>
<svg baseProfile="full" height="216px" preserveAspectRatio="xMidYMid meet" style="font-family: times, serif; font-weight:normal; font-style: normal; font-size: 16px;" version="1.1" viewBox="0,0,224.0,216.0" width="224px" xmlns="http://www.w3.org/2000/svg" xmlns:ev="http://www.w3.org/2001/xml-events" xmlns:xlink="http://www.w3.org/1999/xlink"><defs /><svg width="100%" x="0" y="0em"><defs /><text text-anchor="middle" x="50%" y="1em">S</text></svg><svg width="28.5714%" x="0%" y="3em"><defs /><svg width="100%" x="0" y="0em"><defs /><text text-anchor="middle" x="50%" y="1em">NP</text></svg><svg width="100%" x="0%" y="3em"><defs /><svg width="100%" x="0" y="0em"><defs /><text text-anchor="middle" x="50%" y="1em">Marvin</text></svg><svg width="100%" x="0%" y="3em"><defs /><svg width="100%" x="0" y="0em"><defs /><text text-anchor="middle" x="50%" y="1em">NNP</text></svg></svg><line stroke="black" x1="50%" x2="50%" y1="1.2em" y2="3em" /></svg><line stroke="black" x1="50%" x2="50%" y1="1.2em" y2="3em" /></svg><line stroke="black" x1="50%" x2="14.2857%" y1="1.2em" y2="3em" /><svg width="17.8571%" x="28.5714%" y="3em"><defs /><svg width="100%" x="0" y="0em"><defs /><text text-anchor="middle" x="50%" y="1em">VP</text></svg><svg width="100%" x="0%" y="3em"><defs /><svg width="100%" x="0" y="0em"><defs /><text text-anchor="middle" x="50%" y="1em">V</text></svg><svg width="100%" x="0%" y="3em"><defs /><svg width="100%" x="0" y="0em"><defs /><text text-anchor="middle" x="50%" y="1em">ran</text></svg><svg width="100%" x="0%" y="3em"><defs /><svg width="100%" x="0" y="0em"><defs /><text text-anchor="middle" x="50%" y="1em">VBD</text></svg></svg><line stroke="black" x1="50%" x2="50%" y1="1.2em" y2="3em" /></svg><line stroke="black" x1="50%" x2="50%" y1="1.2em" y2="3em" /></svg><line stroke="black" x1="50%" x2="50%" y1="1.2em" y2="3em" /></svg><line stroke="black" x1="50%" x2="37.5%" y1="1.2em" y2="3em" /><svg width="14.2857%" x="46.4286%" y="3em"><defs /><svg width="100%" x="0" y="0em"><defs /><text text-anchor="middle" x="50%" y="1em">to</text></svg><svg width="100%" x="0%" y="3em"><defs /><svg width="100%" x="0" y="0em"><defs /><text text-anchor="middle" x="50%" y="1em">TO</text></svg></svg><line stroke="black" x1="50%" x2="50%" y1="1.2em" y2="3em" /></svg><line stroke="black" x1="50%" x2="53.5714%" y1="1.2em" y2="3em" /><svg width="28.5714%" x="60.7143%" y="3em"><defs /><svg width="100%" x="0" y="0em"><defs /><text text-anchor="middle" x="50%" y="1em">VP</text></svg><svg width="100%" x="0%" y="3em"><defs /><svg width="100%" x="0" y="0em"><defs /><text text-anchor="middle" x="50%" y="1em">V</text></svg><svg width="100%" x="0%" y="3em"><defs /><svg width="100%" x="0" y="0em"><defs /><text text-anchor="middle" x="50%" y="1em">london</text></svg><svg width="100%" x="0%" y="3em"><defs /><svg width="100%" x="0" y="0em"><defs /><text text-anchor="middle" x="50%" y="1em">VB</text></svg></svg><line stroke="black" x1="50%" x2="50%" y1="1.2em" y2="3em" /></svg><line stroke="black" x1="50%" x2="50%" y1="1.2em" y2="3em" /></svg><line stroke="black" x1="50%" x2="50%" y1="1.2em" y2="3em" /></svg><line stroke="black" x1="50%" x2="75%" y1="1.2em" y2="3em" /><svg width="10.7143%" x="89.2857%" y="3em"><defs /><svg width="100%" x="0" y="0em"><defs /><text text-anchor="middle" x="50%" y="1em">.</text></svg><svg width="100%" x="0%" y="3em"><defs /><svg width="100%" x="0" y="0em"><defs /><text text-anchor="middle" x="50%" y="1em">.</text></svg></svg><line stroke="black" x1="50%" x2="50%" y1="1.2em" y2="3em" /></svg><line stroke="black" x1="50%" x2="94.6429%" y1="1.2em" y2="3em" /></svg>