<?xml version="1.0" encoding="utf-8" ?>
<svg baseProfile="full" height="216px" preserveAspectRatio="xMidYMid meet" style="font-family: times, serif; font-weight:normal; font-style: normal; font-size: 16px;" version="1.1" viewBox="0,0,504.0,216.0" width="504px" xmlns="http://www.w3.org/2000/svg" xmlns:ev="http://www.w3.org/2001/xml-events" xmlns:xlink="http://www.w3.org/1999/xlink"><defs /><svg width="100%" x="0" y="0em"><defs /><text text-anchor="middle" x="50%" y="1em">S</text></svg><svg width="25.3968%" x="0%" y="3em"><defs /><svg width="100%" x="0" y="0em"><defs /><text text-anchor="middle" x="50%" y="1em">NP</text></svg><svg width="31.25%" x="0%" y="3em"><defs /><svg width="100%" x="0" y="0em"><defs /><text text-anchor="middle" x="50%" y="1em">The</text></svg><svg width="100%" x="0%" y="3em"><defs /><svg width="100%" x="0" y="0em"><defs /><text text-anchor="middle" x="50%" y="1em">DT</text></svg></svg><line stroke="black" x1="50%" x2="50%" y1="1.2em" y2="3em" /></svg><line stroke="black" x1="50%" x2="15.625%" y1="1.2em" y2="3em" /><svg width="37.5%" x="31.25%" y="3em"><defs /><svg width="100%" x="0" y="0em"><defs /><text text-anchor="middle" x="50%" y="1em">blue</text></svg><svg width="100%" x="0%" y="3em"><defs /><svg width="100%" x="0" y="0em"><defs /><text text-anchor="middle" x="50%" y="1em">JJ</text></svg></svg><line stroke="black" x1="50%" x2="50%" y1="1.2em" y2="3em" /></svg><line stroke="black" x1="50%" x2="50%" y1="1.2em" y2="3em" /><svg width="31.25%" x="68.75%" y="3em"><defs /><svg width="100%" x="0" y="0em"><defs /><text text-anchor="middle" x="50%" y="1em">cow</text></svg><svg width="100%" x="0%" y="3em"><defs /><svg width="100%" x="0" y="0em"><defs /><text text-anchor="middle" x="50%" y="1em">NN</text></svg></svg><line stroke="black" x1="50%" x2="50%" y1="1.2em" y2="3em" /></svg><line stroke="black" x1="50%" x2="84.375%" y1="1.2em" y2="3em" /></svg><line stroke="black" x1="50%" x2="12.6984%" y1="1.2em" y2="3em" /><svg width="12.6984%" x="25.3968%" y="3em"><defs /><svg width="100%" x="0" y="0em"><defs /><text text-anchor="middle" x="50%" y="1em">VP</text></svg><svg width="100%" x="0%" y="3em"><defs /><svg width="100%" x="0" y="0em"><defs /><text text-anchor="middle" x="50%" y="1em">V</text></svg><svg width="100%" x="0%" y="3em"><defs /><svg width="100%" x="0" y="0em"><defs /><text text-anchor="middle" x="50%" y="1em">jumped</text></svg><svg width="100%" x="0%" y="3em"><defs /><svg width="100%" x="0" y="0em"><defs /><text text-anchor="middle" x="50%" y="1em">VBD</text></svg></svg><line stroke="black" x1="50%" x2="50%" y1="1.2em" y2="3em" /></svg><line stroke="black" x1="50%" x2="50%" y1="1.2em" y2="3em" /></svg><line stroke="black" x1="50%" x2="50%" y1="1.2em" y2="3em" /></svg><line stroke="black" x1="50%" x2="31.746%" y1="1.2em" y2="3em" /><svg width="9.52381%" x="38.0952%" y="3em"><defs /><svg width="100%" x="0" y="0em"><defs /><text text-anchor="middle" x="50%" y="1em">P</text></svg><svg width="100%" x="0%" y="3em"><defs /><svg width="100%" x="0" y="0em"><defs /><text text-anchor="middle" x="50%" y="1em">over</text></svg><svg width="100%" x="0%" y="3em"><defs /><svg width="100%" x="0" y="0em"><defs /><text text-anchor="middle" x="50%" y="1em">IN</text></svg></svg><line stroke="black" x1="50%" x2="50%" y1="1.2em" y2="3em" /></svg><line stroke="black" x1="50%" x2="50%" y1="1.2em" y2="3em" /></svg><line stroke="black" x1="50%" x2="42.8571%" y1="1.2em" y2="3em" /><svg width="9.52381%" x="47.619%" y="3em"><defs /><svg width="100%" x="0" y="0em"><defs /><text text-anchor="middle" x="50%" y="1em">P</text></svg><svg width="100%" x="0%" y="3em"><defs /><svg width="100%" x="0" y="0em"><defs /><text text-anchor="middle" x="50%" y="1em">over</text></svg><svg width="100%" x="0%" y="3em"><defs /><svg width="100%" x="0" y="0em"><defs /><text text-anchor="middle" x="50%" y="1em">IN</text></svg></svg><line stroke="black" x1="50%" x2="50%" y1="1.2em" y2="3em" /></svg><line stroke="black" x1="50%" x2="50%" y1="1.2em" y2="3em" /></svg><line stroke="black" x1="50%" x2="52.381%" y1="1.2em" y2="3em" /><svg width="9.52381%" x="57.1429%" y="3em"><defs /><svg width="100%" x="0" y="0em"><defs /><text text-anchor="middle" x="50%" y="1em">P</text></svg><svg width="100%" x="0%" y="3em"><defs /><svg width="100%" x="0" y="0em"><defs /><text text-anchor="middle" x="50%" y="1em">over</text></svg><svg width="100%" x="0%" y="3em"><defs /><svg width="100%" x="0" y="0em"><defs /><text text-anchor="middle" x="50%" y="1em">IN</text></svg></svg><line stroke="black" x1="50%" x2="50%" y1="1.2em" y2="3em" /></svg><line stroke="black" x1="50%" x2="50%" y1="1.2em" y2="3em" /></svg><line stroke="black" x1="50%" x2="61.9048%" y1="1.2em" y2="3em" /><svg width="28.5714%" x="66.6667%" y="3em"><defs /><svg width="100%" x="0" y="0em"><defs /><text text-anchor="middle" x="50%" y="1em">PP</text></svg><svg width="38.8889%" x="0%" y="3em"><defs /><svg width="100%" x="0" y="0em"><defs /><text text-anchor="middle" x="50%" y="1em">P</text></svg><svg width="100%" x="0%" y="3em"><defs /><svg width="100%" x="0" y="0em"><defs /><text text-anchor="middle" x="50%" y="1em">above</text></svg><svg width="100%" x="0%" y="3em"><defs /><svg width="100%" x="0" y="0em"><defs /><text text-anchor="middle" x="50%" y="1em">IN</text></svg></svg><line stroke="black" x1="50%" x2="50%" y1="1.2em" y2="3em" /></svg><line stroke="black" x1="50%" x2="50%" y1="1.2em" y2="3em" /></svg><line stroke="black" x1="50%" x2="19.4444%" y1="1.2em" y2="3em" /><svg width="61.1111%" x="38.8889%" y="3em"><defs /><svg width="100%" x="0" y="0em"><defs /><text text-anchor="middle" x="50%" y="1em">NP</text></svg><svg width="45.4545%" x="0%" y="3em"><defs /><svg width="100%" x="0" y="0em"><defs /><text text-anchor="middle" x="50%" y="1em">the</text></svg><svg width="100%" x="0%" y="3em"><defs /><svg width="100%" x="0" y="0em"><defs /><text text-anchor="middle" x="50%" y="1em">DT</text></svg></svg><line stroke="black" x1="50%" x2="50%" y1="1.2em" y2="3em" /></svg><line stroke="black" x1="50%" x2="22.7273%" y1="1.2em" y2="3em" /><svg width="54.5455%" x="45.4545%" y="3em"><defs /><svg width="100%" x="0" y="0em"><defs /><text text-anchor="middle" x="50%" y="1em">moon</text></svg><svg width="100%" x="0%" y="3em"><defs /><svg width="100%" x="0" y="0em"><defs /><text text-anchor="middle" x="50%" y="1em">NN</text></svg></svg><line stroke="black" x1="50%" x2="50%" y1="1.2em" y2="3em" /></svg><line stroke="black" x1="50%" x2="72.7273%" y1="1.2em" y2="3em" /></svg><line stroke="black" x1="50%" x2="69.4444%" y1="1.2em" y2="3em" /></svg><line stroke="black" x1="50%" x2="80.9524%" y1="1.2em" y2="3em" /><svg width="4.7619%" x="95.2381%" y="3em"><defs /><svg width="100%" x="0" y="0em"><defs /><text text-anchor="middle" x="50%" y="1em">.</text></svg><svg width="100%" x="0%" y="3em"><defs /><svg width="100%" x="0" y="0em"><defs /><text text-anchor="middle" x="50%" y="1em">.</text></svg></svg><line stroke="black" x1="50%" x2="50%" y1="1.2em" y2="3em" /></svg><line stroke="black" x1="50%" x2="97.619%" y1="1.2em" y2="3em" /></svg>